0
SECTION
2
ENTITIES
999
Created by Metasequoia
0
3DFACE
8
layer1
62
1
10
27.00912
20
-14.99020
30
3.43633
11
27.00912
21
14.54539
31
3.43633
12
27.00912
22
14.54539
32
0.07773
13
27.00912
23
-14.99020
33
0.07773
0
3DFACE
8
layer1
62
1
10
27.00912
20
14.54539
30
3.43633
11
-28.05466
21
14.54540
31
3.43633
12
-28.05466
22
14.54540
32
0.07773
13
27.00912
23
14.54539
33
0.07773
0
3DFACE
8
layer1
62
1
10
-28.05466
20
14.54540
30
3.43633
11
-28.05466
21
-14.99019
31
3.43633
12
-28.05466
22
-14.99019
32
0.07773
13
-28.05466
23
14.54540
33
0.07773
0
3DFACE
8
layer1
62
1
10
-28.05466
20
-14.99019
30
0.07773
11
27.00912
21
-14.99020
31
0.07773
12
27.00912
22
14.54539
32
0.07773
13
-28.05466
23
14.54540
33
0.07773
0
3DFACE
8
layer1
62
1
10
-28.05466
20
-14.99019
30
0.07773
11
-28.05466
21
-14.99019
31
3.43633
12
27.00912
22
-14.99020
32
3.43633
13
27.00912
23
-14.99020
33
0.07773
0
3DFACE
8
layer1
62
1
10
-28.05466
20
-14.99019
30
3.43633
11
-28.05466
21
14.54540
31
3.43633
12
27.00912
22
14.54539
32
3.43633
13
27.00912
23
-14.99020
33
3.43633
0
3DFACE
8
layer1
62
1
10
1.81469
20
-15.00911
30
9.42883
11
3.33454
21
-15.00911
31
9.42883
12
3.33454
22
-15.00911
32
3.42883
13
1.81469
23
-15.00911
33
3.42883
0
3DFACE
8
layer1
62
1
10
3.33454
20
-15.00911
30
9.42883
11
3.33454
21
-1.52711
31
9.42883
12
3.33454
22
-1.52711
32
3.42883
13
3.33454
23
-15.00911
33
3.42883
0
3DFACE
8
layer1
62
1
10
3.33454
20
-1.52711
30
9.42883
11
1.81469
21
-1.52711
31
9.42883
12
1.81469
22
-1.52711
32
3.42883
13
3.33454
23
-1.52711
33
3.42883
0
3DFACE
8
layer1
62
1
10
1.81469
20
-1.52711
30
9.42883
11
1.81469
21
-15.00911
31
9.42883
12
1.81469
22
-15.00911
32
3.42883
13
1.81469
23
-1.52711
33
3.42883
0
3DFACE
8
layer1
62
1
10
1.81469
20
-1.52711
30
9.42883
11
3.33454
21
-1.52711
31
9.42883
12
3.33454
22
-15.00911
32
9.42883
13
1.81469
23
-15.00911
33
9.42883
0
3DFACE
8
layer1
62
1
10
1.81469
20
-15.00911
30
3.42883
11
3.33454
21
-15.00911
31
3.42883
12
3.33454
22
-1.52711
32
3.42883
13
1.81469
23
-1.52711
33
3.42883
0
3DFACE
8
layer1
62
1
10
-5.53324
20
-3.64786
30
9.42883
11
1.81076
21
-3.64786
31
9.42883
12
1.81076
22
-3.64786
32
3.42883
13
-5.53324
23
-3.64786
33
3.42883
0
3DFACE
8
layer1
62
1
10
1.81076
20
-3.64786
30
9.42883
11
1.81076
21
-1.52986
31
9.42883
12
1.81076
22
-1.52986
32
3.42883
13
1.81076
23
-3.64786
33
3.42883
0
3DFACE
8
layer1
62
1
10
1.81076
20
-1.52986
30
9.42883
11
-5.53324
21
-1.52986
31
9.42883
12
-5.53324
22
-1.52986
32
3.42883
13
1.81076
23
-1.52986
33
3.42883
0
3DFACE
8
layer1
62
1
10
-5.53324
20
-1.52986
30
9.42883
11
-5.53324
21
-3.64786
31
9.42883
12
-5.53324
22
-3.64786
32
3.42883
13
-5.53324
23
-1.52986
33
3.42883
0
3DFACE
8
layer1
62
1
10
-5.53324
20
-1.52986
30
9.42883
11
1.81076
21
-1.52986
31
9.42883
12
1.81076
22
-3.64786
32
9.42883
13
-5.53324
23
-3.64786
33
9.42883
0
3DFACE
8
layer1
62
1
10
-5.53324
20
-3.64786
30
3.42883
11
1.81076
21
-3.64786
31
3.42883
12
1.81076
22
-1.52986
32
3.42883
13
-5.53324
23
-1.52986
33
3.42883
0
3DFACE
8
layer1
62
1
10
-5.59210
20
14.47473
30
5.16972
11
-5.59210
21
7.12954
31
5.16972
12
-5.59210
22
7.12954
32
3.43571
13
-5.59210
23
14.47473
33
3.43571
0
3DFACE
8
layer1
62
1
10
-5.59210
20
7.12954
30
5.16972
11
2.90408
21
7.12954
31
5.16972
12
2.90408
22
7.12954
32
3.43571
13
-5.59210
23
7.12954
33
3.43571
0
3DFACE
8
layer1
62
1
10
2.90408
20
7.12954
30
5.16972
11
2.90408
21
14.47473
31
5.16972
12
2.90408
22
14.47473
32
3.43571
13
2.90408
23
7.12954
33
3.43571
0
3DFACE
8
layer1
62
1
10
2.90408
20
14.47473
30
5.16972
11
-5.59210
21
14.47473
31
5.16972
12
-5.59210
22
14.47473
32
3.43571
13
2.90408
23
14.47473
33
3.43571
0
3DFACE
8
layer1
62
1
10
2.90408
20
14.47473
30
5.16972
11
2.90408
21
7.12954
31
5.16972
12
-5.59210
22
7.12954
32
5.16972
13
-5.59210
23
14.47473
33
5.16972
0
3DFACE
8
layer1
62
1
10
-5.59210
20
14.47473
30
3.43571
11
-5.59210
21
7.12954
31
3.43571
12
2.90408
22
7.12954
32
3.43571
13
2.90408
23
14.47473
33
3.43571
0
3DFACE
8
layer1
62
1
10
-17.55327
20
6.75730
30
9.43732
11
-19.41459
21
6.75730
31
9.43732
12
-19.41459
22
6.75730
32
3.43732
13
-17.55327
23
6.75730
33
3.43732
0
3DFACE
8
layer1
62
1
10
-19.41459
20
6.75730
30
9.43732
11
-19.41459
21
-6.72469
31
9.43732
12
-19.41459
22
-6.72469
32
3.43732
13
-19.41459
23
6.75730
33
3.43732
0
3DFACE
8
layer1
62
1
10
-19.41459
20
-6.72469
30
9.43732
11
-17.55327
21
-6.72469
31
9.43732
12
-17.55327
22
-6.72469
32
3.43732
13
-19.41459
23
-6.72469
33
3.43732
0
3DFACE
8
layer1
62
1
10
-17.55327
20
-6.72469
30
9.43732
11
-17.55327
21
6.75730
31
9.43732
12
-17.55327
22
6.75730
32
3.43732
13
-17.55327
23
-6.72469
33
3.43732
0
3DFACE
8
layer1
62
1
10
-17.55327
20
-6.72469
30
9.43732
11
-19.41459
21
-6.72469
31
9.43732
12
-19.41459
22
6.75730
32
9.43732
13
-17.55327
23
6.75730
33
9.43732
0
3DFACE
8
layer1
62
1
10
-17.55327
20
6.75730
30
3.43732
11
-19.41459
21
6.75730
31
3.43732
12
-19.41459
22
-6.72469
32
3.43732
13
-17.55327
23
-6.72469
33
3.43732
0
3DFACE
8
layer1
62
1
10
16.96271
20
7.10563
30
9.43732
11
15.16565
21
7.10563
31
9.43732
12
15.16565
22
7.10563
32
3.43732
13
16.96271
23
7.10563
33
3.43732
0
3DFACE
8
layer1
62
1
10
15.16565
20
7.10563
30
9.43732
11
15.16565
21
-6.37637
31
9.43732
12
15.16565
22
-6.37637
32
3.43732
13
15.16565
23
7.10563
33
3.43732
0
3DFACE
8
layer1
62
1
10
15.16565
20
-6.37637
30
9.43732
11
16.96271
21
-6.37637
31
9.43732
12
16.96271
22
-6.37637
32
3.43732
13
15.16565
23
-6.37637
33
3.43732
0
3DFACE
8
layer1
62
1
10
16.96271
20
-6.37637
30
9.43732
11
16.96271
21
7.10563
31
9.43732
12
16.96271
22
7.10563
32
3.43732
13
16.96271
23
-6.37637
33
3.43732
0
3DFACE
8
layer1
62
1
10
16.96271
20
-6.37637
30
9.43732
11
15.16565
21
-6.37637
31
9.43732
12
15.16565
22
7.10563
32
9.43732
13
16.96271
23
7.10563
33
9.43732
0
3DFACE
8
layer1
62
1
10
16.96271
20
7.10563
30
3.43732
11
15.16565
21
7.10563
31
3.43732
12
15.16565
22
-6.37637
32
3.43732
13
16.96271
23
-6.37637
33
3.43732
0
ENDSEC
0
EOF
